<svg width="100" height="100" viewBox="0 0 100 100" fill="none" xmlns="http://www.w3.org/2000/svg">
<rect width="100" height="100" rx="50" fill="#E9FCFF"/>
<g clip-path="url(#clip0_78_174)">
<path d="M43.75 33.3333V36.2083C42.0208 35.5208 40.1667 35.1666 38.3125 35.1666C34.5833 35.1666 30.8542 36.5833 28 39.4374L34.9375 46.3749H37.25V48.6874C39.0417 50.4791 41.375 51.4166 43.7292 51.5208V56.2499H37.5V62.4999C37.5 64.7916 39.375 66.6666 41.6667 66.6666H62.5C65.9583 66.6666 68.75 63.8749 68.75 60.4166V33.3333H43.75ZM41.4375 46.6874V42.2083H36.6875L34.5208 40.0416C35.7305 39.5747 37.0158 39.3346 38.3125 39.3333C41.1042 39.3333 43.7083 40.4166 45.6875 42.3749L48.625 45.3124L48.2083 45.7291C47.6849 46.2576 47.0619 46.677 46.3753 46.9631C45.6887 47.2491 44.9521 47.3962 44.2083 47.3958C43.2292 47.3958 42.2708 47.1458 41.4375 46.6874ZM64.5833 60.4166C64.5833 61.5624 63.6458 62.4999 62.5 62.4999C61.3542 62.4999 60.4167 61.5624 60.4167 60.4166V56.2499H47.9167V50.8541C49.1042 50.3749 50.2083 49.6666 51.1667 48.7083L51.5833 48.2916L57.4792 54.1666H60.4167V51.2291L47.9167 38.7916V37.4999H64.5833V60.4166Z" fill="#23D3ED"/>
</g>
<defs>
<clipPath id="clip0_78_174">
<rect width="50" height="50" fill="white" transform="translate(25 25)"/>
</clipPath>
</defs>
</svg>
