<svg width="100" height="100" viewBox="0 0 100 100" fill="none" xmlns="http://www.w3.org/2000/svg">
<rect width="100" height="100" rx="50" fill="#FFFDE9"/>
<path d="M58.3334 31.25V39.5833M41.6667 31.25V39.5833M33.3334 47.9167H66.6667M45.8438 54.1667H45.8646M54.1771 54.1667H54.198M33.3334 39.5833C33.3334 38.4783 33.7724 37.4185 34.5538 36.6371C35.3352 35.8557 36.395 35.4167 37.5 35.4167H62.5C63.6051 35.4167 64.6649 35.8557 65.4463 36.6371C66.2277 37.4185 66.6667 38.4783 66.6667 39.5833V64.5833C66.6667 65.6884 66.2277 66.7482 65.4463 67.5296C64.6649 68.311 63.6051 68.75 62.5 68.75H37.5C36.395 68.75 35.3352 68.311 34.5538 67.5296C33.7724 66.7482 33.3334 65.6884 33.3334 64.5833V39.5833Z" stroke="#838C27" stroke-width="3" stroke-linecap="round" stroke-linejoin="round"/>
<path d="M45.8334 62.4999C47.056 61.6485 48.5102 61.1921 50 61.1921C51.4899 61.1921 52.944 61.6485 54.1667 62.4999" stroke="#838C27" stroke-width="3" stroke-linecap="round" stroke-linejoin="round"/>
</svg>
