<svg width="100" height="100" viewBox="0 0 100 100" fill="none" xmlns="http://www.w3.org/2000/svg">
<rect width="100" height="100" rx="50" fill="#FFFDE9"/>
<g clip-path="url(#clip0_78_200)">
<path d="M73.8353 71.6707L58.6206 56.456C61.4882 53.1118 63.2353 48.7765 63.2353 44.0354C63.2353 33.4942 54.6588 24.9177 44.1176 24.9177C39.0118 24.9177 34.2088 26.906 30.5941 30.5148C26.9853 34.1265 24.9971 38.9295 25 44.0354C25 54.5765 33.5765 63.153 44.1176 63.153C48.8588 63.153 53.1971 61.406 56.5412 58.5383L71.7559 73.753L73.8353 71.6707ZM44.1176 60.2118C35.2 60.2118 27.9412 52.956 27.9412 44.0354C27.9382 39.7118 29.6206 35.6501 32.6765 32.5971C35.7294 29.5413 39.7941 27.8589 44.1176 27.8589C53.0353 27.8589 60.2941 35.1148 60.2941 44.0354C60.2941 52.953 53.0353 60.2118 44.1176 60.2118Z" fill="#838C27"/>
</g>
<circle cx="29" cy="59" r="11" fill="#FDFFE9"/>
<line x1="24.6364" y1="54.3636" x2="33.6364" y2="63.3636" stroke="#838C27" stroke-width="1.8"/>
<line x1="24.3636" y1="63.3636" x2="33.3636" y2="54.3636" stroke="#838C27" stroke-width="1.8"/>
<defs>
<clipPath id="clip0_78_200">
<rect width="50" height="50" fill="white" transform="translate(25 25)"/>
</clipPath>
</defs>
</svg>
